
<svg width="181.352321px" height="191.021314px" viewBox="0 0 181.352321 191.021314" version="1.1" xmlns="http://www.w3.org/2000/svg" xmlns:xlink="http://www.w3.org/1999/xlink">
    <g id="Page-1" stroke="none" stroke-width="1" fill="none" fill-rule="evenodd">
        <g id="Splash-Screen" transform="translate(-103.5767, -286.5195)">
            <rect fill="#FFFFFF" x="0" y="0" width="390" height="844"></rect>
            <g id="logo" transform="translate(103.5767, 286.5195)" fill-rule="nonzero">
                <path d="M38.5028933,151.78445 C38.5028933,151.626709 38.5028933,151.390098 38.5028933,151.074616 C38.5028933,150.759135 38.4830913,150.088736 38.4434874,149.063421 C38.4038834,148.038106 38.3840814,146.500133 38.3840814,144.449502 C38.3840814,142.398871 38.3642794,139.559537 38.3246755,135.931498 C38.2850715,132.303459 38.2652695,127.709258 38.2652695,122.148894 C38.2652695,116.58853 38.2454676,109.805675 38.2058636,101.800328 C38.1662596,93.7949817 38.1662596,84.3896854 38.2058636,73.5844394 C38.2454676,62.7791933 38.2652695,50.3176687 38.2652695,36.1998654 C38.2652695,33.3605307 38.819725,30.6789367 39.9286359,28.1550837 C41.0375468,25.6312306 42.5424973,23.4622943 44.4434874,21.6482749 C46.3444775,19.8342555 48.5821012,18.3948705 51.1563586,17.33012 C53.7306161,16.2653695 56.4434874,15.7329942 59.2949725,15.7329942 C62.2256656,15.7329942 64.9781408,16.2653695 67.5523982,17.33012 C70.1266557,18.3948705 72.3642794,19.8342555 74.2652695,21.6482749 C76.1662596,23.4622943 77.6712101,25.6312306 78.780121,28.1550837 C79.8890319,30.6789367 80.4434874,33.3605307 80.4434874,36.1998654 L80.4434874,130.844356 L122.26527,131.080968 C125.195963,131.080968 127.928636,131.633061 130.463289,132.737246 C132.997943,133.841432 135.215765,135.33997 137.116755,137.23286 C139.017745,139.125749 140.502893,141.353839 141.5722,143.917127 C142.641507,146.480415 143.176161,149.221162 143.176161,152.139367 C143.176161,155.057572 142.641507,157.778601 141.5722,160.302454 C140.502893,162.826307 139.017745,165.034679 137.116755,166.927569 C135.215765,168.820459 132.997943,170.279561 130.463289,171.304876 C127.928636,172.330192 125.195963,172.803414 122.26527,172.724544 L59.2949725,172.724544 C56.4434874,172.724544 53.77022,172.192169 51.2751705,171.127418 C48.780121,170.062667 46.5821012,168.603565 44.6811111,166.75011 C42.780121,164.896656 41.2751705,162.688284 40.1662596,160.124996 C39.0573487,157.561708 38.5028933,154.781526 38.5028933,151.78445 Z" id="L5" fill="#FBC421" transform="translate(90.6762, 94.233) rotate(-40) translate(-90.6762, -94.233)"></path>
                <path d="M38.5028933,151.78445 C38.5028933,151.626709 38.5028933,151.390098 38.5028933,151.074616 C38.5028933,150.759135 38.4830913,150.088736 38.4434874,149.063421 C38.4038834,148.038106 38.3840814,146.500133 38.3840814,144.449502 C38.3840814,142.398871 38.3642794,139.559537 38.3246755,135.931498 C38.2850715,132.303459 38.2652695,127.709258 38.2652695,122.148894 C38.2652695,116.58853 38.2454676,109.805675 38.2058636,101.800328 C38.1662596,93.7949817 38.1662596,84.3896854 38.2058636,73.5844394 C38.2454676,62.7791933 38.2652695,50.3176687 38.2652695,36.1998654 C38.2652695,33.3605307 38.819725,30.6789367 39.9286359,28.1550837 C41.0375468,25.6312306 42.5424973,23.4622943 44.4434874,21.6482749 C46.3444775,19.8342555 48.5821012,18.3948705 51.1563586,17.33012 C53.7306161,16.2653695 56.4434874,15.7329942 59.2949725,15.7329942 C62.2256656,15.7329942 64.9781408,16.2653695 67.5523982,17.33012 C70.1266557,18.3948705 72.3642794,19.8342555 74.2652695,21.6482749 C76.1662596,23.4622943 77.6712101,25.6312306 78.780121,28.1550837 C79.8890319,30.6789367 80.4434874,33.3605307 80.4434874,36.1998654 L80.4434874,130.844356 L122.26527,131.080968 C125.195963,131.080968 127.928636,131.633061 130.463289,132.737246 C132.997943,133.841432 135.215765,135.33997 137.116755,137.23286 C139.017745,139.125749 140.502893,141.353839 141.5722,143.917127 C142.641507,146.480415 143.176161,149.221162 143.176161,152.139367 C143.176161,155.057572 142.641507,157.778601 141.5722,160.302454 C140.502893,162.826307 139.017745,165.034679 137.116755,166.927569 C135.215765,168.820459 132.997943,170.279561 130.463289,171.304876 C127.928636,172.330192 125.195963,172.803414 122.26527,172.724544 L59.2949725,172.724544 C56.4434874,172.724544 53.77022,172.192169 51.2751705,171.127418 C48.780121,170.062667 46.5821012,168.603565 44.6811111,166.75011 C42.780121,164.896656 41.2751705,162.688284 40.1662596,160.124996 C39.0573487,157.561708 38.5028933,154.781526 38.5028933,151.78445 Z" id="L4" fill="#FF7429" transform="translate(90.6762, 94.233) rotate(-30) translate(-90.6762, -94.233)"></path>
                <path d="M40.8515188,156.821094 C40.8515188,156.663353 40.8515188,156.426742 40.8515188,156.11126 C40.8515188,155.795778 40.8317168,155.12538 40.7921128,154.100065 C40.7525089,153.074749 40.7327069,151.536776 40.7327069,149.486146 C40.7327069,147.435515 40.7129049,144.59618 40.673301,140.968141 C40.633697,137.340103 40.613895,132.745901 40.613895,127.185537 C40.613895,121.625174 40.594093,114.842318 40.5544891,106.836972 C40.5148851,98.8316253 40.5148851,89.426329 40.5544891,78.621083 C40.594093,67.8158369 40.613895,55.3543122 40.613895,41.236509 C40.613895,38.3971743 41.1683505,35.7155803 42.2772613,33.1917272 C43.3861722,30.6678741 44.8911227,28.4989379 46.7921128,26.6849185 C48.6931029,24.8708991 50.9307267,23.4315141 53.5049841,22.3667636 C56.0792415,21.302013 58.7921128,20.7696378 61.643598,20.7696378 C64.5742911,20.7696378 67.3267663,21.302013 69.9010237,22.3667636 C72.4752812,23.4315141 74.7129049,24.8708991 76.613895,26.6849185 C78.5148851,28.4989379 80.0198356,30.6678741 81.1287465,33.1917272 C82.2376574,35.7155803 82.7921128,38.3971743 82.7921128,41.236509 L82.7921128,135.881 L124.613895,136.117611 C127.544588,136.117611 130.277261,136.669704 132.811915,137.77389 C135.346568,138.878076 137.56439,140.376613 139.46538,142.269503 C141.36637,144.162393 142.851519,146.390482 143.920826,148.95377 C144.990133,151.517059 145.524786,154.257805 145.524786,157.176011 C145.524786,160.094216 144.990133,162.815245 143.920826,165.339098 C142.851519,167.862951 141.36637,170.071322 139.46538,171.964212 C137.56439,173.857102 135.346568,175.316205 132.811915,176.34152 C130.277261,177.366835 127.544588,177.840058 124.613895,177.761187 L61.643598,177.761187 C58.7921128,177.761187 56.1188455,177.228812 53.623796,176.164062 C51.1287465,175.099311 48.9307267,173.640209 47.0297366,171.786754 C45.1287465,169.933299 43.623796,167.724928 42.5148851,165.16164 C41.4059742,162.598351 40.8515188,159.818169 40.8515188,156.821094 Z" id="L3" fill="#EF406D" transform="translate(93.0248, 99.2696) rotate(-20) translate(-93.0248, -99.2696)"></path>
                <path d="M42.279082,162.148832 C42.279082,161.991091 42.279082,161.75448 42.279082,161.438999 C42.279082,161.123517 42.25928,160.453118 42.2196761,159.427803 C42.1800721,158.402488 42.1602701,156.864515 42.1602701,154.813884 C42.1602701,152.763254 42.1404681,149.923919 42.1008642,146.29588 C42.0612602,142.667841 42.0414582,138.07364 42.0414582,132.513276 C42.0414582,126.952912 42.0216563,120.170057 41.9820523,112.16471 C41.9424483,104.159364 41.9424483,94.7540675 41.9820523,83.9488215 C42.0216563,73.1435754 42.0414582,60.6820507 42.0414582,46.5642475 C42.0414582,43.7249127 42.5959137,41.0433188 43.7048246,38.5194657 C44.8137355,35.9956126 46.318686,33.8266764 48.2196761,32.012657 C50.1206662,30.1986376 52.3582899,28.7592526 54.9325473,27.6945021 C57.5068048,26.6297515 60.2196761,26.0973763 63.0711612,26.0973763 C66.0018543,26.0973763 68.7543295,26.6297515 71.328587,27.6945021 C73.9028444,28.7592526 76.1404681,30.1986376 78.0414582,32.012657 C79.9424483,33.8266764 81.4473988,35.9956126 82.5563097,38.5194657 C83.6652206,41.0433188 84.2196761,43.7249127 84.2196761,46.5642475 L84.2196761,141.208739 L126.041458,141.44535 C128.972151,141.44535 131.704825,141.997443 134.239478,143.101628 C136.774132,144.205814 138.991953,145.704352 140.892943,147.597242 C142.793933,149.490132 144.279082,151.718221 145.348389,154.281509 C146.417696,156.844797 146.952349,159.585544 146.952349,162.503749 C146.952349,165.421954 146.417696,168.142983 145.348389,170.666836 C144.279082,173.19069 142.793933,175.399061 140.892943,177.291951 C138.991953,179.184841 136.774132,180.643943 134.239478,181.669259 C131.704825,182.694574 128.972151,183.167796 126.041458,183.088926 L63.0711612,183.088926 C60.2196761,183.088926 57.5464087,182.556551 55.0513592,181.4918 C52.5563097,180.42705 50.3582899,178.967947 48.4572998,177.114492 C46.5563097,175.261038 45.0513592,173.052666 43.9424483,170.489378 C42.8335374,167.92609 42.279082,165.145908 42.279082,162.148832 Z" id="L2" fill="#CF0089" transform="translate(94.4523, 104.5974) rotate(-10) translate(-94.4523, -104.5974)"></path>
                <path d="M42.7500417,167.531926 C42.7500417,167.374185 42.7500417,167.137574 42.7500417,166.822092 C42.7500417,166.50661 42.7302397,165.836212 42.6906357,164.810897 C42.6510318,163.785581 42.6312298,162.247608 42.6312298,160.196978 C42.6312298,158.146347 42.6114278,155.307012 42.5718238,151.678973 C42.5322199,148.050935 42.5124179,143.456733 42.5124179,137.896369 C42.5124179,132.336006 42.4926159,125.55315 42.453012,117.547804 C42.413408,109.542457 42.413408,100.137161 42.453012,89.331915 C42.4926159,78.5266689 42.5124179,66.0651442 42.5124179,51.947341 C42.5124179,49.1080063 43.0668733,46.4264123 44.1757842,43.9025592 C45.2846951,41.3787062 46.7896456,39.2097699 48.6906357,37.3957505 C50.5916258,35.5817311 52.8292496,34.1423461 55.403507,33.0775956 C57.9777644,32.0128451 60.6906357,31.4804698 63.5421209,31.4804698 C66.4728139,31.4804698 69.2252892,32.0128451 71.7995466,33.0775956 C74.373804,34.1423461 76.6114278,35.5817311 78.5124179,37.3957505 C80.413408,39.2097699 81.9183585,41.3787062 83.0272694,43.9025592 C84.1361803,46.4264123 84.6906357,49.1080063 84.6906357,51.947341 L84.6906357,146.591832 L126.512418,146.828443 C129.443111,146.828443 132.175784,147.380536 134.710438,148.484722 C137.245091,149.588908 139.462913,151.087445 141.363903,152.980335 C143.264893,154.873225 144.750042,157.101314 145.819349,159.664602 C146.888656,162.227891 147.423309,164.968637 147.423309,167.886843 C147.423309,170.805048 146.888656,173.526077 145.819349,176.04993 C144.750042,178.573783 143.264893,180.782154 141.363903,182.675044 C139.462913,184.567934 137.245091,186.027037 134.710438,187.052352 C132.175784,188.077667 129.443111,188.55089 126.512418,188.472019 L63.5421209,188.472019 C60.6906357,188.472019 58.0173684,187.939644 55.5223189,186.874894 C53.0272694,185.810143 50.8292496,184.351041 48.9282595,182.497586 C47.0272694,180.644131 45.5223189,178.43576 44.413408,175.872472 C43.3044971,173.309183 42.7500417,170.529001 42.7500417,167.531926 Z" id="L1" fill="#5A1F85"></path>
            </g>
        </g>
    </g>
</svg>